HIERARCHY
ROOT Hips
{
	OFFSET 0.000000 0.000000 0.000000
	CHANNELS 6 Xposition Yposition Zposition Xrotation Yrotation Zrotation
	JOINT LeftUpLeg_virtual
	{
		OFFSET 0.000000 0.000000 0.000000
		CHANNELS 3 Xrotation Yrotation Zrotation
		JOINT LeftUpLeg
		{
			OFFSET 11.394100 -6.187798 -0.413800
			CHANNELS 3 Xrotation Yrotation Zrotation
			JOINT LeftLeg
			{
				OFFSET 0.430247 -32.302673 3.732800
				CHANNELS 3 Xrotation Yrotation Zrotation
				JOINT LeftFoot
				{
					OFFSET -0.430247 -48.264931 -6.423300
					CHANNELS 3 Xrotation Yrotation Zrotation
					JOINT LeftToeBase
					{
						OFFSET 4.230900 -16.068199 23.438400
						CHANNELS 3 Xrotation Yrotation Zrotation
						JOINT LeftToe_End
						{
							OFFSET 4.510700 0.695400 19.974600
							CHANNELS 3 Xrotation Yrotation Zrotation
							End Site
							{
								OFFSET 0 0 0
							}
						}
					}
				}
			}
		}
	}
	JOINT RightUpLeg_virtual
	{
		OFFSET 0.000000 0.000000 0.000000
		CHANNELS 3 Xrotation Yrotation Zrotation
		JOINT RightUpLeg
		{
			OFFSET -11.333700 -6.187798 -0.413800
			CHANNELS 3 Xrotation Yrotation Zrotation
			JOINT RightLeg
			{
				OFFSET -0.430392 -32.302628 3.733000
				CHANNELS 3 Xrotation Yrotation Zrotation
				JOINT RightFoot
				{
					OFFSET 0.430392 -48.264973 -6.423500
					CHANNELS 3 Xrotation Yrotation Zrotation
					JOINT RightToeBase
					{
						OFFSET -4.230900 -16.068199 23.438400
						CHANNELS 3 Xrotation Yrotation Zrotation
						JOINT RightToe_End
						{
							OFFSET -4.510700 0.695400 19.974600
							CHANNELS 3 Xrotation Yrotation Zrotation
							End Site
							{
								OFFSET 0 0 0
							}
						}
					}
				}
			}
		}
	}
	JOINT Spine_virtual
	{
		OFFSET 0.000000 0.000000 0.000000
		CHANNELS 3 Xrotation Yrotation Zrotation
		JOINT Spine
		{
			OFFSET -0.002400 12.777504 0.315300
			CHANNELS 3 Xrotation Yrotation Zrotation
			JOINT Spine1
			{
				OFFSET -0.002067 5.816869 0.032633
				CHANNELS 3 Xrotation Yrotation Zrotation
				JOINT Spine1_split
				{
					OFFSET -0.002067 5.816869 0.032633
					CHANNELS 3 Xrotation Yrotation Zrotation
					JOINT Spine2
					{
						OFFSET -0.002067 5.816869 0.032633
						CHANNELS 3 Xrotation Yrotation Zrotation
						JOINT Neck_virtual
						{
							OFFSET 0.000000 0.000000 0.000000
							CHANNELS 3 Xrotation Yrotation Zrotation
							JOINT Neck
							{
								OFFSET -0.003700 21.199493 -0.826900
								CHANNELS 3 Xrotation Yrotation Zrotation
								JOINT Head
								{
									OFFSET 0.000000 20.442200 4.834800
									CHANNELS 3 Xrotation Yrotation Zrotation
									JOINT HeadTop_End
									{
										OFFSET 0.000000 34.668396 4.968400
										CHANNELS 3 Xrotation Yrotation Zrotation
										End Site
										{
											OFFSET 0 0 0
										}
									}
								}
							}
						}
						JOINT LeftShoulder_virtual
						{
							OFFSET 0.000000 0.000000 0.000000
							CHANNELS 3 Xrotation Yrotation Zrotation
							JOINT LeftShoulder
							{
								OFFSET 3.288150 8.794197 -1.372250
								CHANNELS 3 Xrotation Yrotation Zrotation
								JOINT LeftShoulder_split
								{
									OFFSET 3.288150 8.794197 -1.372250
									CHANNELS 3 Xrotation Yrotation Zrotation
									JOINT LeftArm
									{
										OFFSET 11.953299 -2.279007 -0.146200
										CHANNELS 3 Xrotation Yrotation Zrotation
										JOINT LeftForeArm
										{
											OFFSET 18.448900 0.000000 0.000000
											CHANNELS 3 Xrotation Yrotation Zrotation
											JOINT LeftHand
											{
												OFFSET 29.527798 0.000000 0.000000
												CHANNELS 3 Xrotation Yrotation Zrotation
												End Site
												{
													OFFSET 0 0 0
												}
											}
										}
									}
								}
							}
						}
						JOINT RightShoulder_virtual
						{
							OFFSET 0.000000 0.000000 0.000000
							CHANNELS 3 Xrotation Yrotation Zrotation
							JOINT RightShoulder
							{
								OFFSET -3.249400 8.794197 -1.372250
								CHANNELS 3 Xrotation Yrotation Zrotation
								JOINT RightShoulder_split
								{
									OFFSET -3.249400 8.794197 -1.372250
									CHANNELS 3 Xrotation Yrotation Zrotation
									JOINT RightArm
									{
										OFFSET -11.953299 -2.279007 -0.146200
										CHANNELS 3 Xrotation Yrotation Zrotation
										JOINT RightForeArm
										{
											OFFSET -18.448900 0.000000 0.000000
											CHANNELS 3 Xrotation Yrotation Zrotation
											JOINT RightHand
											{
												OFFSET -29.527802 0.000000 0.000000
												CHANNELS 3 Xrotation Yrotation Zrotation
												End Site
												{
													OFFSET 0 0 0
												}
											}
										}
									}
								}
							}
						}
					}
				}
			}
		}
	}
}
MOTION
Frames: 8
Frame Time: 0.03333333
-128.266510 39.596573 -0.488525 0.000000 0.000000 0.000000 0.561555 4.344077 -45.114738 -116.839784 3.663273 2.639075 22.460911 2.090795 2.128990 39.590433 -0.807071 34.004141 -7.208031 1.784103 6.758713 0.000000 0.000000 0.000000 3.135600 9.531939 -47.092518 -129.800000 6.516593 -29.760777 109.754016 11.345536 1.721821 29.148686 28.092993 22.323476 -37.782749 3.222124 0.617400 0.000000 0.000000 0.000000 -0.402798 4.019696 -48.716208 23.887340 -2.177422 -11.989545 4.252225 1.199592 -2.875929 1.805590 0.731636 2.769045 0.000000 0.000000 0.000000 4.992475 1.079960 -3.170584 -2.909146 -1.009046 1.252475 -3.888687 18.576260 3.567795 0.000000 0.000000 0.000000 4.603143 1.398332 -2.872632 0.308414 -23.587095 -12.747692 -3.121087 -2.964330 -2.220386 -40.768921 33.952570 -10.079204 3.657516 -69.126002 3.673242 0.000000 0.000000 0.000000 4.999059 1.063650 -3.232042 3.143576 9.805645 0.008128 8.700850 7.326935 -0.917923 -44.430247 -33.924460 -9.901870 -2.067019 52.653812 0.609167 0.000000 0.000000 0.000000 
-127.446968 42.039783 -1.924103 0.000000 0.000000 0.000000 0.703001 2.988346 -48.306288 -119.366312 3.411938 5.941219 31.705738 4.791869 1.071076 35.931808 0.252007 36.020843 -8.665443 1.592720 5.805268 0.000000 0.000000 0.000000 3.615274 8.241855 -50.234187 -122.908872 -1.252905 -28.196561 104.955808 10.471810 0.558504 25.266847 27.677397 20.678782 -35.378874 3.417961 0.514257 0.000000 0.000000 0.000000 -0.169747 3.589115 -50.988834 23.112467 -3.439241 -12.266418 4.396399 0.770274 -2.920019 1.850367 1.634131 2.456989 0.000000 0.000000 0.000000 4.773852 0.732694 -3.220897 -2.562602 -0.555024 1.529719 -3.826601 19.724910 3.933549 0.000000 0.000000 0.000000 4.732513 1.068553 -2.981776 1.369120 -22.309995 -11.383055 -3.364379 -3.932171 -2.101286 -43.429242 31.570309 -8.187763 3.138199 -66.277779 3.462507 0.000000 0.000000 0.000000 5.050003 0.700254 -3.347226 3.103209 9.529531 -1.091199 8.593751 6.227822 -1.263541 -44.648035 -38.788364 -12.197938 -1.882589 53.929289 0.641284 0.000000 0.000000 0.000000 
-126.681602 45.112152 -3.187180 0.000000 0.000000 0.000000 1.840438 0.711033 -52.109340 -121.938042 2.322926 9.019691 46.465121 7.706889 -0.597818 29.987146 2.194224 39.223929 -11.238735 1.298038 4.734966 0.000000 0.000000 0.000000 5.497950 6.500110 -53.954335 -116.671461 -8.732415 -25.040831 99.051895 9.271080 0.394598 22.364985 26.814809 17.485235 -31.878282 3.572783 0.847629 0.000000 0.000000 0.000000 1.217904 2.042757 -53.549472 22.456789 -4.792705 -11.934665 4.429156 0.231421 -2.874747 1.945336 2.612590 1.818642 0.000000 0.000000 0.000000 4.349524 0.235443 -3.112356 -2.228424 0.024728 1.828198 -4.170063 20.730589 4.708591 0.000000 0.000000 0.000000 4.700229 0.603894 -3.002546 2.343037 -20.740873 -9.618274 -3.333180 -4.412124 -2.277579 -47.131710 28.349134 -5.844684 2.186215 -62.700488 2.742992 0.000000 0.000000 0.000000 4.950764 0.242481 -3.302954 2.878273 8.748515 -1.622600 8.349255 4.815446 -1.648717 -45.811021 -44.575826 -13.439083 -1.835272 56.293285 0.907087 0.000000 0.000000 0.000000 
-125.990250 48.689793 -4.445351 0.000000 0.000000 0.000000 3.926389 -2.181217 -55.603218 -123.456011 0.908045 10.941879 63.354601 9.727520 -2.574657 21.785778 3.779401 43.026104 -13.224045 0.999645 3.392434 0.000000 0.000000 0.000000 8.242316 3.843739 -57.495344 -111.816849 -14.631247 -21.156084 92.013815 8.007512 0.976023 22.460438 26.170479 14.163102 -28.234180 3.736372 1.332715 0.000000 0.000000 0.000000 3.642345 -0.465179 -55.984520 21.885702 -6.221848 -11.243366 4.342787 -0.344618 -2.786840 1.818733 2.976361 1.012802 0.000000 0.000000 0.000000 3.807340 -0.351476 -2.908239 -1.889020 0.643235 2.125087 -4.970056 21.468328 5.882304 0.000000 0.000000 0.000000 4.533548 0.058878 -2.954707 3.126963 -19.015696 -7.522729 -2.611644 -4.354683 -2.396945 -51.295445 24.940854 -3.667347 1.064786 -59.613290 1.683324 0.000000 0.000000 0.000000 4.747869 -0.272187 -3.161913 2.509700 7.384952 -1.750055 8.089897 3.359918 -1.893083 -47.283583 -51.151010 -13.634222 -1.981226 59.846719 1.426526 0.000000 0.000000 0.000000 
-125.333817 52.538578 -6.012230 0.000000 0.000000 0.000000 6.860646 -5.057927 -58.163391 -123.716719 -0.539996 11.563795 77.599439 10.085473 -3.637773 13.156203 3.865854 45.450616 -15.120517 0.572198 2.074671 0.000000 0.000000 0.000000 11.343874 0.526849 -60.166447 -108.821996 -18.208296 -17.400616 83.969075 7.198127 1.659510 25.827052 26.356262 13.074423 -25.383747 3.899993 1.508653 0.000000 0.000000 0.000000 6.862512 -3.430686 -57.774555 21.499928 -7.770856 -10.593326 4.192810 -0.886850 -2.721142 1.635650 2.464289 0.669366 0.000000 0.000000 0.000000 3.331761 -0.969222 -2.669713 -1.641912 1.214300 2.346631 -6.183198 21.782131 7.301378 0.000000 0.000000 0.000000 4.212031 -0.509343 -2.898992 3.630052 -17.688448 -5.258323 -1.333969 -3.635280 -2.415664 -56.089257 21.186787 -1.965552 0.303576 -56.647000 0.657965 0.000000 0.000000 0.000000 4.529052 -0.825684 -2.986943 2.062651 5.747850 -1.604909 8.146211 2.314285 -2.047143 -48.034231 -58.009603 -12.488708 -2.255017 63.605399 2.066207 0.000000 0.000000 0.000000 
-124.709663 56.415764 -7.996689 0.000000 0.000000 0.000000 10.816398 -7.470025 -59.393317 -122.662575 -2.375563 10.651795 87.309892 8.866306 -3.058605 6.206060 2.938230 45.037130 -19.147694 -0.201835 1.345199 0.000000 0.000000 0.000000 14.551230 -2.898077 -61.531535 -107.196226 -19.616771 -14.216247 75.607401 6.956273 2.284483 30.794536 27.251101 14.606380 -23.326247 4.012459 1.346406 0.000000 0.000000 0.000000 10.815148 -6.135700 -58.646012 21.414200 -9.392258 -10.152862 4.050846 -1.370865 -2.697559 1.508267 1.406689 0.408443 0.000000 0.000000 0.000000 2.988238 -1.577788 -2.455592 -1.635119 1.686765 2.505478 -7.729210 21.626945 8.767048 0.000000 0.000000 0.000000 3.884485 -1.075335 -2.867626 3.869339 -17.241523 -2.911338 0.080378 -2.611562 -2.369369 -61.285293 16.995170 -0.710080 -0.038369 -52.779594 -0.117062 0.000000 0.000000 0.000000 4.375220 -1.380360 -2.824721 1.638436 4.362689 -1.281332 8.153278 1.934077 -2.312014 -46.460422 -64.376466 -9.117792 -2.481257 66.226061 2.608044 0.000000 0.000000 0.000000 
-124.160500 59.923439 -10.261513 0.000000 0.000000 0.000000 15.250740 -9.065564 -59.126345 -120.647273 -5.149183 8.153136 92.733314 6.722354 -1.046576 2.174713 2.733284 41.372525 -26.177199 -0.996011 1.139282 0.000000 0.000000 0.000000 17.978250 -5.955198 -61.388688 -105.667008 -19.618272 -11.607121 67.922611 6.557657 3.078103 34.215170 27.427164 17.490894 -19.877293 3.983886 1.098498 0.000000 0.000000 0.000000 15.028993 -8.295939 -58.476815 21.854983 -11.006678 -9.999170 4.079754 -1.753255 -2.712095 1.401301 0.047628 0.506487 0.000000 0.000000 0.000000 2.857509 -2.140984 -2.286305 -2.020639 1.982620 2.550815 -9.493697 21.032172 10.019242 0.000000 0.000000 0.000000 3.690250 -1.607502 -2.865093 3.864080 -17.973588 -0.848575 1.037047 -1.529516 -2.113920 -66.442161 12.398924 -0.004709 0.330590 -47.524402 -0.350995 0.000000 0.000000 0.000000 4.372787 -1.873077 -2.669946 1.280153 3.857883 -0.742066 8.032449 2.302116 -2.418933 -40.637440 -68.933957 -2.169835 -2.378905 66.177040 2.659191 0.000000 0.000000 0.000000 
-123.619560 62.504284 -12.829830 0.000000 0.000000 0.000000 19.514884 -10.074351 -57.692900 -118.301417 -8.926216 5.176089 95.875270 5.170034 0.865692 -0.472416 4.486706 37.131770 -33.246776 -1.332223 0.288631 0.000000 0.000000 0.000000 21.003178 -8.279864 -59.886443 -103.989172 -18.929658 -9.563131 61.865627 5.536020 4.078303 34.200875 25.682582 20.324411 -13.642057 3.897457 0.986681 0.000000 0.000000 0.000000 18.949907 -9.586276 -57.271990 22.960104 -12.440687 -10.047758 4.338438 -1.989014 -2.774003 1.776066 -0.711564 0.849513 0.000000 0.000000 0.000000 2.917265 -2.591831 -2.189014 -2.819529 2.163436 2.431787 -11.306235 20.082296 10.889456 0.000000 0.000000 0.000000 3.738384 -2.053438 -2.897604 3.644037 -19.939781 0.698433 1.116103 -0.454498 -1.998672 -71.036891 7.918859 0.303641 1.133188 -41.306382 -0.125334 0.000000 0.000000 0.000000 4.554101 -2.248419 -2.530903 1.044179 4.626759 0.054536 7.691050 3.271016 -2.548221 -30.724161 -70.641122 7.689560 -1.971506 63.461036 2.224183 0.000000 0.000000 0.000000 
